<svg xmlns="http://www.w3.org/2000/svg" width="488" height="55" viewBox="0 0 488 55">
    <g fill="none" fill-rule="evenodd">
        <g>
            <g>
                <path fill="#F4C00E" d="M234.306 28.321c.58.398.549 1.206 1.076 1.604l.259 1.787-1.335 1.894c-1.647.861-4.08 1.228-5.608-.15-.816-.773-1.146-1.928-.862-3.014l.603-1.637c.345-.225.807-.279 1.076-.688.876-.36 1.81-.563 2.756-.593.689.216 1.733-.15 2.035.797" transform="translate(-120 -244) translate(120 244)"/>
                <path fill="#E65A2B" d="M230.054 38.806c.517 0 .883.366 1.378.28.688.258.602 1.075 1.323 1.303.52 1.1.914 2.255 1.174 3.444-.205.69.366 1.077.172 1.723l.194.107c.045.696-.057 1.393-.302 2.045-.026 1.15-.376 2.27-1.011 3.23-.377.225-.55.883-1.076.764-.926.29-1.013 1.668-2.154 1.497-.721.547-1.69.236-2.561.258-.485-.258-1.174-.194-1.52-.626-.873-.407-1.676-.953-2.378-1.614-.29-.636-.958-.914-1.076-1.636.247-.862-.291-1.636-.064-2.498l-.173-1.441.55-2.466c.915-.483.656-1.604 1.582-1.948.57-1.324 1.948-1.605 3.013-2.282.399-.075.894.15 1.206-.215.57-.098 1.077.505 1.636 0" transform="translate(-120 -244) translate(120 244)"/>
                <path fill="#009AD8" d="M276.9.538c-.226 4.058-3.563 6.782-5.317 10.205-.744 2.034-2.519 3.23-3.789 5.081-1.175 1.175-2.255 2.443-3.23 3.789.172.947 1.173 1.205 1.744 1.895 1.291.785 1.443 2.238 2.562 3.132.657 0 .657.979 1.378.861 1.451 1.616 2.796 3.323 4.026 5.113.18.668.555 1.268 1.076 1.723 1.001 1.464 1.841 3.014 2.874 4.51.14 1.669 1.55 2.798 1.981 4.305.635.829.882 1.798 1.464 2.627.893 1.959 1.497 4.004 2.562 5.866.127.419.016.873-.29 1.185-.41.312-.722-.27-1.185-.183-2.363-.914-4.63-2.056-6.77-3.413-2.239-1.808-4.716-3.099-6.922-4.994-.872-.237-1.206-1.238-2.014-1.647-2.152-1.314-3.82-3.23-5.973-4.446-.98-.754-1.96-1.463-2.929-2.239-.753-.086-1.012-.947-1.722-1.206-1.615-.979-3.079-2.325-4.714-3.228-.14.236 0 .57-.14.806-1.077 1.077-.808 2.702-1.583 3.875 0 1.701-1.206 2.929-1.7 4.425-1.346 2.411-2.53 4.887-3.93 7.266-1.873 2.476-2.874 5.458-5.512 7.438-.552.649-1.217 1.195-1.959 1.615-.323-.097-.774 0-.86-.441-.323-.593.086-1.519-.345-2.067.204-.882.31-1.786.312-2.691l-.14-.409c0-1.26.656-2.325.4-3.617.324-.826.516-1.698.57-2.584.435-1.11.728-2.271.871-3.455.367-.736.516-1.561.431-2.379.29-.742.333-1.636 1.076-2.153.118-.485 0-.969.086-1.497.775-2.346 1.722-4.617 2.325-7.029 0-.172-.172-.236-.29-.258-1.69-.086-3.23.258-4.856-.173-2.577-.05-5.143-.349-7.664-.892-1-.205-2.217-.087-3.133-.657-.625.11-1.267.05-1.862-.172-1.183-.581-2.615-.495-3.789-1.076-.904.107-1.528-.463-2.336-.55-.806-.086-1.205-.603-1.754-1.076v-.258c1.432-1.96 3.736-2.498 5.802-3.23 2.066-.732 4.306-.689 6.46-1.077 1.345-.225 2.82.151 4.165-.086 2.443 0 4.79.463 7.212.517.77.221 1.56.377 2.357.463v-.355l-2.239-3.229c-.86-2.003-2.433-3.693-2.98-5.825-.518-.634 0-1.582-.432-2.271 0-.312.226-.548.366-.796.495-.205 1.076.14 1.53-.172 1.462.333 2.808.861 4.304 1.141 1.57.535 3.057 1.281 4.424 2.218 1.701 1.205 3.735 1.98 5.06 3.842.38.298.881.395 1.345.258.41 0 .495-.538.862-.688 1.787-1.077 3.8-1.755 5.544-2.983.72-.72 1.873-.807 2.303-1.786.51-.3 1.046-.549 1.604-.743.947-.753 1.943-1.444 2.981-2.067.552-.1 1.068-.34 1.497-.7 1.786-.968 3.65-1.775 5.382-2.895C273.854 0 274.973.226 275.781 0c.398.086.947 0 1.076.538" transform="translate(-120 -244) translate(120 244)"/>
                <path fill="#000" d="M437.056 36.158c-.927.561-1.998.834-3.08.785-2.014-.035-3.62-1.697-3.584-3.712v-.01c0-2.94 2.153-4.039 4.307-4.039.74.01 1.478.086 2.206.226l.15 6.75zm-7.998-11.206c.904-1.634 2.68-2.589 4.542-2.443 3.133 0 3.315 2.755 3.315 5.242-.645 0-1.431-.14-2.152-.14-4.177 0-8.827 1.884-8.827 6.76 0 3.401 3.078 5.382 6.21 5.382 2.024 0 3.488-1.076 5.05-2.249.784 1.312 2.166 2.154 3.692 2.25l3.434-2.756-.678-.69c-.316.1-.641.161-.97.183-1.012 0-1.377-.592-1.377-2.712v-1.658c0-2.626.183-5.016.183-6.674 0-4.597-3.487-5.694-7.59-5.694-2.006-.01-4.003.27-5.931.83v4.37h1.099zM326.88 13.315h-1.98c-1.454-4.435-6.083-6.168-10.13-6.168-8.202 0-11.604 6.588-11.604 14.511 0 13.304 9.612 15.554 13.53 15.554 3.758.118 7.299-1.75 9.324-4.918l1.453.613-1.453 5.231c-3.025.67-6.108 1.03-9.204 1.076-13.995 0-20.216-8.61-20.216-17.147 0-9.689 7.535-16.879 18.05-16.879 6.126 0 8.484 1.076 11.843 1.884l.387 6.243zM332.263 24.92v-4.381c1.928-.557 3.925-.833 5.93-.818 4.102 0 7.6 1.076 7.6 5.705 0 1.657-.13 4.058-.182 6.674v1.626c0 2.152.366 2.7 1.388 2.7.329-.023.655-.084.969-.182l.679.689-3.467 2.766c-1.528-.095-2.911-.942-3.692-2.26-1.561 1.163-3.036 2.26-5.06 2.26-3.132 0-6.222-1.937-6.222-5.382 0-4.876 4.66-6.771 8.849-6.771.732 0 1.519.14 2.153.14 0-2.487-.183-5.252-3.315-5.252-1.874-.137-3.655.836-4.554 2.486h-1.076zm8.924 4.467c-.732-.141-1.474-.216-2.218-.226-2.152 0-4.306 1.076-4.306 4.047-.042 2.016 1.558 3.683 3.573 3.725h.012c1.082.045 2.156-.225 3.089-.775l-.15-6.771zM356.052 19.774c0 1.927.194 5.985.194 9.764v6.716c0 1.572.72 1.798 1.798 2.078v.915c-1.4 0-2.777-.14-4.155-.14-1.378 0-2.486.097-3.725.14v-.915c1.076-.28 1.604-.506 1.604-2.078V30.55c.12-2.067-.098-4.139-.646-6.135-.274-.836-1.048-1.406-1.926-1.42v-.916c2.087-.456 4.09-1.234 5.94-2.304h.916zm-2.26-7.783c1.336-.066 2.473.964 2.538 2.3l.002.046c-.092 1.401-1.301 2.461-2.7 2.371-1.273-.083-2.287-1.097-2.37-2.37.04-1.337 1.157-2.388 2.494-2.348l.036.001zM360.369 38.332c1.25-.302 2.337-1.072 3.035-2.152l4.479-5.716-5.297-7.181c-.599-.95-1.49-1.68-2.54-2.077v-.915c1.388 0 2.809.14 4.187.14 1.378 0 2.767-.097 4.145-.14v.915c-.55.28-.958.377-.958 1.076.028.536.22 1.05.549 1.475l2.529 3.445 2.261-2.993c.363-.434.6-.958.688-1.518 0-.872-.549-1.194-1.291-1.474v-.915c1.248 0 2.443.139 3.681.139s2.444-.096 3.638-.14v.916c-1.559.438-2.902 1.439-3.767 2.809L371.79 29l4.973 6.91c.715 1.076 1.724 1.924 2.907 2.443v.916c-1.389 0-2.724-.14-4.102-.14-1.378 0-2.723.097-4.101.14v-.916c.535-.075.931-.536.925-1.076-.147-.562-.399-1.091-.742-1.56l-2.487-3.542-2.454 3.347c-.334.515-.554 1.095-.646 1.702 0 .732.366.968.969 1.076v.915c-1.195 0-2.443-.14-3.639-.14-1.011 0-1.98.097-2.992.14l-.032-.883zM382.92 24.92v-4.381c1.932-.556 3.933-.832 5.942-.818 4.102 0 7.6 1.076 7.6 5.705 0 1.657-.13 4.058-.183 6.674v1.626c0 2.152.367 2.7 1.389 2.7.325-.022.647-.083.958-.182l.699.689-3.455 2.766c-1.53-.095-2.911-.942-3.692-2.26-1.561 1.163-3.035 2.26-5.06 2.26-3.142 0-6.221-1.937-6.221-5.382 0-4.876 4.65-6.771 8.837-6.771.744 0 1.529.14 2.154.14 0-2.487-.184-5.252-3.316-5.252-1.87-.15-3.652.805-4.564 2.443l-1.088.043zm8.989 4.467c-.727-.14-1.467-.215-2.207-.226-2.153 0-4.305 1.076-4.305 4.047-.042 2.016 1.557 3.683 3.572 3.725h.022c1.084.047 2.158-.223 3.09-.775l-.172-6.771zM408.55 9.688c0-.872.56-.915 1.842-.915 4.962 0 6.846 2.658 6.846 6.706 0 4.047-2.755 6.523-6.846 6.523-.592 0-1.238 0-2.068-.086l.227-12.228zm-5.145 25.651c0 1.97-.602 2.66-2.616 2.896v.83h7.902c.646 0 1.292 0 1.883.085.593.086 1.292.097 1.895.097 5.006 0 10.937-1.938 10.937-7.858 0-4.79-2.896-7.223-7.223-8.418v-.096c3.456-1.078 6.663-3.628 6.663-7.536 0-5.974-6.157-8.18-11.303-8.18-1.076 0-2.152.182-4.23.182-1.841 0-3.725-.183-6.017-.183V8.17c1.237.183 1.98.603 1.98 2.346 0 4.134.129 9.968.129 15.49v9.333zm4.919-11.41h2.488c4.413 0 6.986 3.121 6.986 7.31.187 3.341-2.371 6.202-5.713 6.388-.194.011-.39.013-.585.005-2.852 0-3.176-.463-3.176-2.949V23.93zM445.064 22.94c1.01-.118 1.923.605 2.04 1.615.021.18.015.36-.017.536 0 1.475.226 3.952.226 6.62v4.511c0 1.55-.549 1.744-1.7 2.153v.904c1.292 0 2.626-.129 3.907-.129 1.281 0 2.627.086 3.961.13v-.905c-1.248-.15-1.71-.517-1.71-2.153v-3.82c0-3.586.096-6.158.096-7.902 0-1.745 2.938-2.154 3.853-2.154 3.23 0 3.78 3.413 3.78 5.89v7.954c0 1.55-.368 1.884-1.659 2.152v.905c1.475 0 2.896-.129 4.37-.129 1.152 0 2.25.086 3.402.13v-.906c-1.292-.376-1.657-.699-1.657-2.152v-9.764c0-3.907-1.788-6.609-6.34-6.609-2.032.191-3.972.936-5.61 2.153 0-.775 0-1.508.086-2.303h-.914c-1.855 1.185-3.938 1.97-6.114 2.303v.97zM487.271 38.278c-1.39-.569-2.63-1.449-3.627-2.572l-6.943-8.138 3.541-3.725c1.175-1.253 2.661-2.173 4.305-2.669v-.916c-1.15.097-2.302.14-3.444.14-1.14 0-2.529 0-3.778-.14v.916c.46.232.771.682.83 1.194-.1.847-.53 1.622-1.197 2.153l-3.767 3.714V6.61h-1.012c-1.837 1.314-3.909 2.264-6.103 2.8v1.075c1.141 0 2.153 1.076 2.293 2.982.14 1.906.366 5.2.366 7.87v14.876c.12 1.015-.606 1.935-1.62 2.056-.042.005-.083.008-.124.01v.926c1.238-.097 2.432-.15 3.671-.15 1.238 0 2.713.15 4.09.15v-.926c-1.077-.226-1.56-.785-1.56-2.152v-6.309h.086l4.736 5.2c.662.67 1.121 1.513 1.323 2.432.031.428-.29.798-.717.828l-.014.001v.926c1.561 0 3.121-.15 4.693-.15 1.325 0 2.66.096 3.993.15l-.02-.926zM297.3 47.331L297.3 48.042 297.3 48.074 297.3 48.785 487.272 48.785 487.272 48.074 487.272 48.042 487.272 47.331z" transform="translate(-120 -244) translate(120 244)"/>
                <path fill="#B9C800" d="M34.62 34.235c0 8.13-5.93 13.47-17.42 13.47-3.987.014-7.925-.874-11.52-2.6L0 47.445V6.675c4.135-1.234 8.416-1.907 12.73-2 9.3 0 14.71 4.46 14.71 10.68.026 2.36-.897 4.628-2.56 6.3 6.12 1.42 9.74 6.101 9.74 12.58zm-27.31 5.15c2.935 1.537 6.207 2.321 9.52 2.28 6.88 0 10.18-3.08 10.18-8 0-5.13-3.36-8.119-11.79-8.64 3.52-2.56 5.13-5.49 5.13-8.12 0-3.149-2.13-6.149-7.62-6.149-1.836.006-3.66.276-5.42.8v27.83zM40 14.725c4.092-2.098 8.612-3.224 13.21-3.29 8.85 0 13.32 4.39 13.32 11.861v24.15l-5.79-2.34c-2.988 1.77-6.407 2.678-9.88 2.63-9.07 0-13.17-4.9-13.17-10-.116-2.979 1.057-5.86 3.22-7.91 3.29-3.07 9.22-5.12 18.59-5.92-.07-4.47-2.41-6.44-7.17-6.44-3.755.165-7.418 1.216-10.69 3.07L40 14.725zm11.82 27.23c2.729.024 5.403-.766 7.68-2.27v-10.25c-11.86 1.25-14.5 4.25-14.5 7.8 0 2.86 2.56 4.76 6.81 4.76l.01-.04zm27.59-27.37c3.474-2.012 7.406-3.097 11.42-3.15 3.73 0 6.87 1.17 8.85 3.22 1.83 1.9 2.86 4.61 2.86 8.42v23.86h-7v-22c0-2.86-.51-4.389-1.61-5.49-1.358-1.104-3.083-1.654-4.83-1.54-2.99.056-5.905.941-8.42 2.56v26.47h-7v-35.21l5.73 2.86zM113 29.365l14.86 17.57h-8.93l-14.79-17.42 15.08-17.42h8.86L113 29.365zm19.47 17.57h7v-34.84h-7v34.84zm14.27-32.21c4.08-2.093 8.586-3.219 13.17-3.29 8.86 0 13.32 4.39 13.32 11.861v24.15l-5.78-2.34c-2.988 1.77-6.407 2.678-9.88 2.63-9.07 0-13.17-4.9-13.17-10-.116-2.979 1.057-5.86 3.22-7.91 3.29-3.07 9.22-5.12 18.59-5.92-.08-4.47-2.42-6.44-7.17-6.44-3.755.165-7.419 1.216-10.69 3.07l-1.61-5.81zm11.78 27.23c2.732.025 5.41-.765 7.69-2.27v-10.25c-11.86 1.25-14.49 4.25-14.49 7.76 0 2.86 2.56 4.76 6.8 4.76z" transform="translate(-120 -244) translate(120 244)"/>
            </g>
        </g>
    </g>
</svg>
